#!OML:ASF G:\JayActor3\Patient Classification 1\Patient 1\Session 5\male.ASF
:FULLY-SPECIFIED
:DEGREES
989
root 43.3779 14.0987 -4.85025 219.037 87.6902 205.588
lowerback 31.3239 -2.99795 3.34606
upperback 6.78303 -2.08963 -0.160712
thorax -9.61075 -0.768884 -1.36707
lowerneck -7.17609 0.0340072 0.976938
upperneck -5.83799 0.161536 0.963669
head -0.611271 0.128026 0.135224
rclavicle 3.89618e-014 6.16232e-015
rhumerus -22.9817 3.49576 -86.1337
rradius 42.3448
rwrist -4.02326
rhand -21.1988 -7.48264
rfingers 7.12502
rthumb 5.18242 -37.3993
lclavicle 3.89618e-014 6.16232e-015
lhumerus -24.4654 -6.78861 83.2064
lradius 41.8966
lwrist 24.5999
lhand -17.093 11.7677
lfingers 7.12502
lthumb 9.14557 41.5494
rfemur -68.6788 2.21654 22.0937
rtibia 67.0178
rfoot -17.8478 -13.1143
rtoes 2.99029
lfemur -41.4077 8.71982 -18.5393
ltibia 88.9004
lfoot -11.6795 1.18617
ltoes -29.0266
990
root 43.5102 14.101 -4.82302 219.055 87.5041 205.667
lowerback 31.3783 -3.07509 3.46011
upperback 6.80317 -2.1427 -0.146784
thorax -9.61957 -0.793692 -1.39601
lowerneck -7.16891 0.0329071 0.944206
upperneck -5.76787 0.161278 1.02133
head -0.591122 0.128053 0.157905
rclavicle -5.96354e-016 -1.17283e-014
rhumerus -22.9963 3.7365 -86.1627
rradius 42.6287
rwrist -4.15663
rhand -21.1723 -7.55148
rfingers 7.12502
rthumb 5.20797 -37.4675
lclavicle -5.96354e-016 -1.17283e-014
lhumerus -24.4605 -6.78378 83.1699
lradius 42.0232
lwrist 24.5811
lhand -17.0186 11.7842
lfingers 7.12502
lthumb 9.21738 41.5628
rfemur -68.3249 2.26755 22.3054
rtibia 67.5203
rfoot -18.2159 -13.133
rtoes 3.33691
lfemur -42.2431 8.80967 -18.039
ltibia 90.2923
lfoot -8.90467 0.42874
ltoes -27.5354
991
root 43.641 14.1014 -4.79426 219.43 87.2843 206.089
lowerback 31.3973 -3.1468 3.58578
upperback 6.8243 -2.18535 -0.116858
thorax -9.60963 -0.813849 -1.41815
lowerneck -7.15125 0.0238759 0.910449
upperneck -5.71259 0.151183 1.08633
head -0.577145 0.123136 0.182816
rclavicle 8.34896e-015 2.18663e-015
rhumerus -23.0174 3.96423 -86.1766
rradius 42.9154
rwrist -4.27898
rhand -21.1855 -7.59489
rfingers 7.12502
rthumb 5.1952 -37.5112
lclavicle 8.34896e-015 2.18663e-015
lhumerus -24.433 -6.78119 83.1365
lradius 42.1537
lwrist 24.5388
lhand -16.9872 11.7962
lfingers 7.12502
lthumb 9.24774 41.5734
rfemur -67.9861 2.33049 22.5539
rtibia 68.0212
rfoot -18.6116 -13.2132
rtoes 3.70746
lfemur -43.2033 8.89684 -17.5124
ltibia 91.7258
lfoot -6.13158 -0.273287
ltoes -25.7891
992
root 43.7702 14.0997 -4.76433 219.711 87.0423 206.413
lowerback 31.4011 -3.21195 3.70914
upperback 6.84621 -2.22017 -0.0783854
thorax -9.59071 -0.830177 -1.43256
lowerneck -7.1195 0.00914109 0.881248
upperneck -5.67693 0.133814 1.15039
head -0.571341 0.114441 0.206602
rclavicle 6.16232e-015 3.00165e-014
rhumerus -23.0488 4.16139 -86.1737
rradius 43.2002
rwrist -4.38266
rhand -21.2408 -7.59244
rfingers 7.12502
rthumb 5.14187 -37.5101
lclavicle 6.16232e-015 3.00165e-014
lhumerus -24.3831 -6.78801 83.1073
lradius 42.2794
lwrist 24.4793
lhand -16.9963 11.8048
lfingers 7.12502
lthumb 9.23892 41.5823
rfemur -67.6567 2.3953 22.8174
rtibia 68.5255
rfoot -19.031 -13.337
rtoes 4.11074
lfemur -44.2605 8.96908 -16.9887
ltibia 93.1664
lfoot -3.40016 -0.891606
ltoes -23.7245
993
root 43.8978 14.0962 -4.7338 219.656 86.7948 206.412
lowerback 31.4102 -3.26841 3.81798
upperback 6.86888 -2.24792 -0.039551
thorax -9.57265 -0.8427 -1.44083
lowerneck -7.07678 -0.0169146 0.842597
upperneck -5.65882 0.103189 1.23618
head -0.57258 0.0992323 0.238312
rclavicle 9.34288e-015 2.80286e-014
rhumerus -23.0953 4.31982 -86.1549
rradius 43.4792
rwrist -4.46788
rhand -21.3275 -7.57231
rfingers 7.12502
rthumb 5.05812 -37.4919
lclavicle 9.34288e-015 2.80286e-014
lhumerus -24.3149 -6.80397 83.0814
lradius 42.3975
lwrist 24.3973
lhand -17.045 11.8066
lfingers 7.12502
lthumb 9.19193 41.5862
rfemur -67.3223 2.45489 23.076
rtibia 69.0355
rfoot -19.4695 -13.4873
rtoes 4.55476
lfemur -45.3744 9.02902 -16.4983
ltibia 94.5816
lfoot -0.933889 -1.42379
ltoes -21.5219
994
root 44.0238 14.0911 -4.70353 219.201 86.5549 206.036
lowerback 31.4461 -3.31773 3.9066
upperback 6.89102 -2.27179 -0.00772647
thorax -9.56737 -0.852836 -1.44631
lowerneck -7.03152 -0.0478745 0.814122
upperneck -5.64669 0.0653338 1.31488
head -0.575986 0.080202 0.266169
rclavicle 5.96354e-015 5.56597e-015
rhumerus -23.1546 4.43568 -86.1251
rradius 43.7443
rwrist -4.53478
rhand -21.417 -7.55453
rfingers 7.12502
rthumb 4.97174 -37.4762
lclavicle 5.96354e-015 5.56597e-015
lhumerus -24.2355 -6.82919 83.0581
lradius 42.5042
lwrist 24.315
lhand -17.1468 11.789
lfingers 7.12502
lthumb 9.09371 41.573
rfemur -66.972 2.50612 23.3146
rtibia 69.5526
rfoot -19.9203 -13.6513
rtoes 5.02168
lfemur -46.5054 9.07769 -16.0673
ltibia 95.9414
lfoot 0.956025 -1.98631
ltoes -19.4648
995
root 44.1488 14.0849 -4.6744 218.448 86.3393 205.389
lowerback 31.7541 -3.37307 3.99271
upperback 6.48643 -2.28492 -0.0501802
thorax -9.38736 -0.851412 -1.40859
lowerneck -6.99253 -0.0881704 0.786471
upperneck -5.64065 0.0153795 1.4005
head -0.580179 0.0551668 0.29586
rclavicle 8.34896e-015 9.74045e-015
rhumerus -23.2204 4.52205 -86.0831
rradius 43.9982
rwrist -4.60216
rhand -21.4923 -7.57275
rfingers 7.12502
rthumb 4.89897 -37.4961
lclavicle 8.34896e-015 9.74045e-015
lhumerus -24.1452 -6.85784 83.0384
lradius 42.5963
lwrist 24.2431
lhand -17.2929 11.7522
lfingers 7.12502
lthumb 8.95266 41.5423
rfemur -66.5993 2.555 23.5235
rtibia 70.0744
rfoot -20.3722 -13.8256
rtoes 5.50227
lfemur -47.6263 9.12661 -15.7191
ltibia 97.2116
lfoot 2.08407 -2.5474
ltoes -17.8508
996
root 44.2728 14.078 -4.64732 217.463 86.1587 204.535
lowerback 31.844 -3.40138 4.03667
upperback 6.51062 -2.29465 -0.0452577
thorax -9.39815 -0.853532 -1.4215
lowerneck -6.96511 -0.133209 0.757774
upperneck -5.6318 -0.0410054 1.48406
head -0.5816 0.0270392 0.325045
rclavicle 1.0138e-014 -2.48481e-014
rhumerus -23.2813 4.57971 -86.0299
rradius 44.2266
rwrist -4.6696
rhand -21.5518 -7.62425
rfingers 7.12502
rthumb 4.84153 -37.5489
lclavicle 1.0138e-014 -2.48481e-014
lhumerus -24.0483 -6.88748 83.0225
lradius 42.6802
lwrist 24.1928
lhand -17.4658 11.7086
lfingers 7.12502
lthumb 8.78584 41.5057
rfemur -66.2006 2.60412 23.6957
rtibia 70.5973
rfoot -20.8341 -13.9953
rtoes 6.01927
lfemur -48.7259 9.17589 -15.4785
ltibia 98.3545
lfoot 2.36973 -3.11975
ltoes -17.0002
997
root 44.3961 14.0709 -4.62254 216.405 86.0165 203.628
lowerback 31.9508 -3.41887 4.05868
upperback 6.53687 -2.29796 -0.0531071
thorax -9.41301 -0.85205 -1.43819
lowerneck -6.954 -0.180235 0.733738
upperneck -5.61684 -0.100836 1.55894
head -0.578499 -0.00274024 0.350805
rclavicle -2.36554e-014 1.94809e-014
rhumerus -23.3278 4.62303 -85.9706
rradius 44.422
rwrist -4.73907
rhand -21.5987 -7.68934
rfingers 7.12502
rthumb 4.7963 -37.6151
lclavicle -2.36554e-014 1.94809e-014
lhumerus -23.9519 -6.90224 83.0088
lradius 42.7604
lwrist 24.1746
lhand -17.653 11.6658
lfingers 7.12502
lthumb 8.60523 41.4705
rfemur -65.7819 2.66404 23.8358
rtibia 71.1167
rfoot -21.2967 -14.163
rtoes 6.53693
lfemur -49.8109 9.23336 -15.3524
ltibia 99.3406
lfoot 1.9494 -3.65556
ltoes -16.7854
998
root 44.5186 14.063 -4.60001 215.388 85.913 202.767
lowerback 32.0653 -3.42316 4.06311
upperback 6.56457 -2.29091 -0.0703639
thorax -9.42865 -0.84536 -1.45912
lowerneck -6.94907 -0.224308 0.706611
upperneck -5.6024 -0.156804 1.62307
head -0.574539 -0.0304389 0.373879
rclavicle 6.36111e-015 -3.20043e-014
rhumerus -23.351 4.65827 -85.9031
rradius 44.5779
rwrist -4.81472
rhand -21.6429 -7.74352
rfingers 7.12502
rthumb 4.75359 -37.6702
lclavicle 6.36111e-015 -3.20043e-014
lhumerus -23.8578 -6.89956 82.9992
lradius 42.8433
lwrist 24.1874
lhand -17.8321 11.6278
lfingers 7.12502
lthumb 8.43235 41.4395
rfemur -65.3493 2.74449 23.9499
rtibia 71.6291
rfoot -21.7582 -14.3391
rtoes 6.93572
lfemur -50.9018 9.30222 -15.3445
ltibia 100.152
lfoot 1.0729 -4.04869
ltoes -17.0625
999
root 44.6405 14.0545 -4.57948 214.409 85.8394 201.941
lowerback 32.1737 -3.41815 4.05287
upperback 6.59263 -2.2785 -0.0949859
thorax -9.44106 -0.836034 -1.4822
lowerneck -6.92984 -0.259517 0.678424
upperneck -5.60539 -0.200513 1.67426
head -0.578187 -0.0520566 0.393427
rclavicle 1.74931e-014 -3.97569e-014
rhumerus -23.3457 4.69048 -85.8334
rradius 44.689
rwrist -4.88616
rhand -21.6845 -7.78686
rfingers 7.12502
rthumb 4.71344 -37.7144
lclavicle 1.74931e-014 -3.97569e-014
lhumerus -23.7689 -6.87621 82.9894
lradius 42.9318
lwrist 24.225
lhand -17.9958 11.5926
lfingers 7.12502
lthumb 8.27438 41.4106
rfemur -64.9146 2.84308 24.0425
rtibia 72.1333
rfoot -22.2438 -14.5073
rtoes 7.29995
lfemur -52.0223 9.37614 -15.4573
ltibia 100.78
lfoot -0.0327098 -4.22572
ltoes -17.6045
